<svg xmlns="http://www.w3.org/2000/svg">
    <path fill="#d87512" d="M17.786 44.63c-.606.115-1.23.173-1.854.173-2.444 0-4.644-.864-6.04-2.375-.855-.92-1.394-2.147-1.517-3.47-.126-1.243.067-2.638.58-4.163.325-1.016.83-2.01 1.365-3.064.216-.426.437-.858.65-1.302.702-1.454 1.504-3.164 2.11-5.05.715-2.188.943-4.287.682-6.23-.267-2.102-.994-3.972-1.74-5.685a2.992 2.992 0 0 0-4.15-1.446c-.71.375-1.23 1-1.467 1.77a2.983 2.983 0 0 0 .218 2.292c.632 1.19 1.314 2.596 1.592 3.977.238 1.137.18 2.41-.184 3.897-.37 1.538-.976 3.143-1.522 4.518-.16.406-.33.816-.507 1.234-.507 1.215-1.032 2.47-1.364 3.838-.55 2.14-.666 4.152-.348 5.97.36 2.163 1.41 4.14 2.955 5.567 2.027 1.88 4.808 2.914 7.826 2.914 1.14 0 2.274-.146 3.375-.437l-.66-2.923"/>
    <g fill="#bc600d">
        <path d="M11.585 43.742s.387 1.248.104 3.05c0 0 2.045-.466 1.898-2.27 0 0-.815-.29-2-.78M9.19 41.484S8.98 42.94 7.93 44.43c0 0 2.103.42 2.774-1.265 0 0-.696-.66-1.515-1.68M8.398 37.21s-.926 1.432-3.23 2.322c0 0 1.514 2.303 3.53.904 0 0-.237-1.388-.3-3.226M12.964 15.833s-1.685.798-3.783 3.45c0 0 2.1 1.55 4.663 2.228 0 0 .285-3.093-.88-5.677M13.5 23.873s-2.988.544-5.57 2.794c0 0 1.615 1.708 3.583 2.62 0 0 1.678-3.39 1.987-5.414M10.32 31.73s-1.483 0-4.483.812c0 0-.01 2.873 2.94 2.823 0 0 .747-1.75 1.544-3.635"/>
    </g>
    <g fill="#d87512">
        <path d="M53.33 39.37c0-4.484-35.622-4.484-35.622 0 0 10.16.05 10.25 17.81 10.25 17.762 0 17.812-.09 17.812-10.25"/>
        <path d="M42.645 56.04c1.688 2.02 9.275.043 10.504-2.28 5.01-9.482-.006-13.58-.006-13.58l-10.5 1.313s-2.154 11.977 0 14.547"/>
    </g>
    <g fill="#bc600d">
        <path d="M54.2 41.496s-.336 4.246-4.657 9.573c0 0 4.38-1.7 5.808-4.3 0 0 .448-3.02-1.15-5.274M55.08 48.69s-1.065 1.88-3.563 3.872c0 0 1.78-.03 2.576-.785 0 0 .77-1.41.987-3.086"/>
    </g>
    <path fill="#f29a2e" d="M35.484 60.38c1.87 2.23 8.547 2.09 10.574 0 2.904-2.995 2.78-16.656 2.904-23.314l-12.418-1.053s-3.444 21.52-1.06 24.367"/>
    <g fill="#bc600d">
        <path d="M48.21 53.53s-3.578-3.443-8.738-.013c0 0 5.754 2.455 7.365 5.672 0 0 1.126-2.245 1.373-5.66M48.775 46.06s-3.852-3.09-7.938 1.43c0 0 4.452-.47 7.632 3.635 0 0 .493-3.05.305-5.065"/>
    </g>
    <g fill="#3e4347">
        <path d="M43.847 61.57l-.397-2.765 1.344 2.445zM40.41 61.996l.502-3.294.498 3.294zM36.713 61.3l1.317-2.26-.372 2.59z"/>
    </g>
    <path fill="#d87512" d="M28.388 56.04c-1.688 2.02-9.277.043-10.504-2.28-5.01-9.482.004-13.58.004-13.58l10.5 1.313s2.154 11.977 0 14.547"/>
    <g fill="#bc600d">
        <path d="M16.833 41.496s.336 4.246 4.657 9.573c0 0-4.38-1.7-5.807-4.3 0 0-.448-3.02 1.15-5.274M15.957 48.69s1.066 1.88 3.563 3.872c0 0-1.782-.03-2.576-.785 0 0-.772-1.41-.987-3.086"/>
    </g>
    <path fill="#f29a2e" d="M35.548 60.38c-1.87 2.23-8.548 2.09-10.575 0-2.904-2.995-2.78-16.656-2.904-23.314l12.417-1.053s3.446 21.52 1.06 24.367"/>
    <g fill="#bc600d">
        <path d="M22.822 53.53s3.58-3.443 8.74-.013c0 0-5.754 2.455-7.367 5.672 0 0-1.125-2.245-1.373-5.66M22.255 46.06s3.852-3.09 7.94 1.43c0 0-4.453-.47-7.633 3.635 0 0-.493-3.05-.307-5.065"/>
    </g>
    <g fill="#3e4347">
        <path d="M26.24 61.25l1.345-2.445-.395 2.765zM29.62 61.996l.5-3.294.5 3.294zM33.375 61.63L33 59.04l1.32 2.26zM35.516 60.46c-.395-2.48-.482-4.96-.5-7.438.015-2.48.104-4.96.5-7.44.396 2.48.485 4.96.5 7.44-.018 2.48-.106 4.96-.5 7.438"/>
    </g>
    <path fill="#f29a2e" d="M27.777 6.994c0 3.82-2.727 6.987-6.086 6.915C11.83 13.7 15.893 2 15.893 2c3.36 0 11.885 1.176 11.885 4.994"/>
    <path fill="#af5a31" d="M24.05 7.752c0 2.037-1.454 3.727-3.248 3.688-5.26-.11-3.093-6.353-3.093-6.353 1.792 0 6.34.628 6.34 2.665"/>
    <path fill="#f29a2e" d="M43.26 6.994c0 3.82 2.726 6.987 6.086 6.915 9.86-.21 5.8-11.91 5.8-11.91C51.782 2 43.26 3.176 43.26 6.994"/>
    <path fill="#af5a31" d="M46.983 7.752c0 2.037 1.455 3.727 3.247 3.688 5.26-.11 3.094-6.353 3.094-6.353-1.794 0-6.34.628-6.34 2.665"/>
    <path fill="#f29a2e" d="M55.806 33.378c0 7.155-9.517 8.13-20.288 8.13-10.776 0-20.29-.975-20.29-8.13 0-29.96 11.596-29.14 20.29-29.14 8.69 0 20.288-.82 20.288 29.14"/>
    <g fill="#3e4347">
        <path d="M35.54 7.59c3.24 0 6.15 1.084 8.156 2.81-.77-2.945-4.135-5.16-8.173-5.16-4.06 0-7.442 2.238-8.186 5.204 2.01-1.753 4.938-2.855 8.204-2.855"/>
        <path d="M35.535 11.193c2.217 0 4.21.744 5.584 1.925-.528-2.02-2.835-3.534-5.6-3.534-2.78 0-5.095 1.533-5.605 3.564 1.376-1.198 3.383-1.955 5.62-1.955"/>
    </g>
    <path fill="#ffe8bb" d="M29.553 43.727l-18.408-7.01 4.24-9.06s2.704 3.85 13.29 6.82l.878 9.243"/>
    <path fill="#3e4347" d="M29.37 39.77c-7.462-1.27-16.325-6.673-16.48-6.75l.992-2.168c.184.092 8.806 5.342 15.853 6.544l-.366 2.374"/>
    <path fill="#ffe8bb" d="M41.48 43.727l18.406-7.01-4.24-9.06s-2.704 3.85-13.29 6.82l-.876 9.243"/>
    <path fill="#3e4347" d="M41.663 39.77c7.46-1.27 16.325-6.673 16.48-6.75l-.993-2.168c-.184.092-8.808 5.342-15.852 6.544l.365 2.374"/>
    <g fill="#ffe8bb">
        <path d="M43.524 45.57C38.752 42.023 41.4 33.86 41.4 33.86c-5.657 5.906-12.662 8.74-12.662 8.74 1.608 5.446 5.77 6.412 5.77 6.412-.34-1.835.663-3.302.663-3.302 1.68 2.22 5.03 2.986 5.03 2.986-1.287-1.508-.948-3.835-.948-3.835 2.326.875 4.27.71 4.27.71"/>
        <path d="M42.29 42.97c-2.634 2.247-10.917 2.247-13.553 0-2.856-2.435-2.495-7.144.1-9.884 2.397-2.527 10.958-2.527 13.355 0 2.595 2.74 2.956 7.45.098 9.883"/>
    </g>
    <g fill="#3e4347">
        <path d="M36.18 40.48a.69.69 0 0 1-.644-.477c-.227-.67-.77-3.293-.71-5.498.01-.398.325-.71.7-.698.38.01.674.343.663.74-.057 2.01.46 4.466.633 4.974.127.375-.06.786-.414.92a.607.607 0 0 1-.23.04"/>
        <path d="M30.504 43.25c.21-.202.394-.408.582-.61.188-.204.378-.405.57-.604.385-.396.782-.78 1.2-1.145a14.125 14.125 0 0 1 2.745-1.9c.504-.263 1.032-.49 1.59-.654s1.153-.273 1.772-.253c.31.01.623.055.928.146.307.088.602.23.86.416.263.19.485.422.652.684.17.257.287.54.35.83a4.247 4.247 0 0 0-.677-.448 2.567 2.567 0 0 0-.68-.237c-.447-.088-.887-.04-1.33.06-.89.216-1.786.65-2.69 1.114-.905.466-1.818.983-2.776 1.466-.48.24-.97.473-1.48.682-.256.103-.517.202-.783.285-.27.078-.546.155-.833.167"/>
    </g>
    <path fill="#f15a61" d="M41.34 31.743c-1.17-.528-4.757-.57-5.83-.57-1.07 0-4.66.042-5.83.57-.832.376-.187 1.31 2.027 2.116 1.397.506 2.733.666 3.803.666 1.07 0 2.405-.16 3.805-.667 2.213-.808 2.856-1.74 2.025-2.117"/>
    <g fill="#3e4347">
        <path d="M29.917 23.48l1.61 5.292L26.954 26z"/>
        <path d="M22.645 31.828c-.522 0-.932-.056-1.17-.098-2.986-.52-4.632-1.996-6.09-4.067l.185-2.472c1.52 1.446 3.953 3.76 6.28 4.167 1.156.2 2.853-.016 4.15-1.234 1.537-1.44 2.263-4.05 2.1-7.547l1.635.132c.2 4.312-.116 7.244-2.212 9.212-1.692 1.59-3.613 1.908-4.878 1.908M41.12 23.48l-1.613 5.292L44.08 26z"/>
        <path d="M48.39 31.828c.52 0 .93-.056 1.167-.098 2.99-.52 4.637-1.996 6.09-4.067l-.182-2.472c-1.52 1.446-3.955 3.76-6.28 4.167-1.156.2-2.855-.016-4.154-1.234-1.532-1.44-2.258-4.05-2.095-7.547l-1.636.132c-.202 4.312.114 7.244 2.213 9.212 1.69 1.59 3.61 1.908 4.877 1.908"/>
    </g>
    <path fill="#ffe8bb" d="M30.25 22.09c-.852 5.282-3.728 5.87-6.696 5.577-2.986-.294-5.396-2.667-5.396-6.743 0-4.28 0-4.28 6.647-5.752 6.728-1.49 6 3.437 5.445 6.918"/>
    <path fill="#3e4347" d="M29.16 22.547c-.244 2.534-2.61 4.357-5.287 4.072-2.674-.286-4.645-2.57-4.402-5.102s.28-2.75 5.108-2.237c4.83.514 4.824.737 4.582 3.267"/>
    <path fill="#fff" d="M27.59 21.884c-.16 1.688-1.74 2.903-3.522 2.714-1.785-.19-3.096-1.712-2.936-3.4.163-1.69.186-1.835 3.406-1.493 3.22.344 3.215.49 3.053 2.18"/>
    <g fill="#3e4347">
        <ellipse cx="25.5" cy="21.08" rx="1.45" ry="1.647"/>
        <path d="M31.27 17.896c.42 0 .807-.284.936-.728.16-.546-.133-1.122-.65-1.29l-5.98-1.924c-.516-.166-1.065.14-1.225.685-.155.543.136 1.12.652 1.287l5.98 1.924a.95.95 0 0 0 .288.046"/>
    </g>
    <path fill="#ffe8bb" d="M40.78 22.09c.855 5.282 3.73 5.87 6.7 5.577 2.984-.294 5.395-2.667 5.395-6.743 0-4.28-.002-4.28-6.646-5.752-6.73-1.49-6.01 3.437-5.45 6.918"/>
    <path fill="#3e4347" d="M41.873 22.547c.243 2.534 2.61 4.357 5.287 4.072 2.674-.286 4.646-2.57 4.402-5.102-.242-2.533-.28-2.75-5.107-2.237-4.83.514-4.824.737-4.582 3.267"/>
    <path fill="#fff" d="M43.44 21.884c.16 1.688 1.737 2.903 3.522 2.714 1.783-.19 3.098-1.712 2.936-3.4-.16-1.69-.188-1.835-3.404-1.493-3.22.344-3.217.49-3.054 2.18"/>
    <g fill="#3e4347">
        <ellipse cx="47.722" cy="20.932" rx="1.45" ry="1.647"/>
        <path d="M39.76 17.896a.982.982 0 0 1-.935-.728c-.16-.546.132-1.122.65-1.29l5.98-1.924c.517-.166 1.063.14 1.224.685.155.543-.136 1.12-.653 1.287l-5.98 1.924a.96.96 0 0 1-.287.046"/>
    </g>
</svg>
